<svg version="1.1" id="Layer_1" xmlns="http://www.w3.org/2000/svg" xmlns:xlink="http://www.w3.org/1999/xlink" x="0px" y="0px"
	 width="100%" viewBox="0 0 634 573" enable-background="new 0 0 634 573" xml:space="preserve">
<path fill="#097204" opacity="1.000000" stroke="none" 
	d="
M1.000000,573.000000 
	C1.000000,382.400238 1.000000,191.800446 1.000000,1.000000 
	C211.692459,1.000000 422.384979,1.000000 633.539185,1.468657 
	C634.000793,192.146072 634.000793,382.354828 634.000793,573.000000 
	C422.494904,573.000000 211.747452,573.000000 1.000000,573.000000 
M351.036377,103.033051 
	C351.036377,103.033051 351.053406,103.131592 350.460449,103.351242 
	C349.681610,104.554260 348.902771,105.757278 347.594788,107.333313 
	C346.712524,108.538437 345.830261,109.743561 344.421722,111.260338 
	C343.898254,112.124992 343.374756,112.989647 342.324249,114.244476 
	C338.462830,121.515892 334.175049,128.599487 330.864990,136.113800 
	C327.813721,143.040695 325.812500,150.430176 322.967987,156.697540 
	C322.517151,150.779221 322.066345,144.860886 321.999908,138.398972 
	C321.890686,136.947739 321.781433,135.496521 321.826630,133.123215 
	C321.775543,129.067261 321.724426,125.011314 322.024048,120.468666 
	C321.933624,119.321182 321.843201,118.173698 321.893890,116.108139 
	C321.819397,112.389694 321.744873,108.671249 321.974091,104.524727 
	C321.883545,103.690651 321.792999,102.856575 321.850922,101.106331 
	C321.807343,97.388870 321.763763,93.671402 322.020020,89.525024 
	C321.931549,88.691948 321.843079,87.858864 321.895416,86.103539 
	C321.824127,82.054161 321.752869,78.004784 322.033752,73.454361 
	C321.936676,72.314545 321.839600,71.174736 321.882629,69.107193 
	C321.898926,64.396362 321.915253,59.685528 322.224060,54.377197 
	C322.785004,48.362011 318.111237,50.182404 315.341492,50.178135 
	C248.362915,50.074841 181.384140,50.103310 114.405411,50.108829 
	C88.247017,50.110989 62.088600,50.094627 35.930264,50.133972 
	C29.974670,50.142929 29.051197,50.834106 29.323570,56.763897 
	C29.857302,68.383720 29.758619,80.172066 31.799164,91.554077 
	C36.009220,115.037506 46.031891,136.222183 61.083771,154.789780 
	C65.089310,159.730911 70.293663,163.700211 75.177422,168.503891 
	C75.367622,168.745789 75.603897,168.927948 76.108330,169.655334 
	C77.067924,170.435379 78.027512,171.215424 79.247787,172.617386 
	C85.871605,177.264526 92.495422,181.911667 99.730606,186.799271 
	C100.374001,186.916718 101.017403,187.034149 102.026405,187.730850 
	C102.762634,188.397079 103.398308,189.255630 104.250046,189.700943 
	C119.009438,197.417404 134.570633,203.033142 151.275650,203.500198 
	C174.567551,204.151382 197.900406,203.311401 221.194382,203.922867 
	C243.785736,204.515900 264.210480,212.118835 282.066284,226.059875 
	C288.331635,230.951584 294.111572,236.464966 300.179901,241.819305 
	C300.179901,241.819305 300.304657,241.886169 300.576416,242.468246 
	C307.561279,249.400711 314.546143,256.333160 321.795654,263.808319 
	C322.105103,264.396210 322.288269,265.115143 322.742493,265.552826 
	C334.490479,276.873444 346.243652,288.189087 358.088837,299.407471 
	C358.897430,300.173218 360.953033,300.827850 361.515656,300.381989 
	C362.507599,299.595886 363.153839,297.963745 363.316742,296.610199 
	C364.148376,289.699219 364.175934,282.638885 365.583282,275.858826 
	C372.010315,244.896545 391.006012,224.100281 419.428894,211.627960 
	C434.977020,204.805252 451.644104,203.707001 468.426544,204.222015 
	C483.610687,204.687973 498.852905,205.084930 513.542542,200.536453 
	C521.864746,197.959564 529.824402,194.211685 538.650818,190.782364 
	C539.079651,190.549545 539.508545,190.316742 540.571106,190.089493 
	C542.406921,189.073776 544.242798,188.058060 546.472534,186.785568 
	C546.740112,186.559967 546.837585,186.276001 547.120483,185.745819 
	C547.120483,185.745819 547.403931,185.460678 548.106262,185.477493 
	C550.419739,183.931305 552.733276,182.385101 555.706543,180.780533 
	C557.211609,179.569794 558.716614,178.359055 560.881348,176.950317 
	C574.256104,167.712296 584.351868,155.345505 593.224121,142.023788 
	C609.517700,117.559074 616.280640,90.337097 615.737915,61.073280 
	C615.521606,49.412186 615.824646,49.491188 604.293762,49.527554 
	C567.834778,49.642540 531.375610,49.662937 494.916626,49.769207 
	C467.357910,49.849533 439.628815,47.736546 412.982605,57.806984 
	C395.015625,64.597298 378.740417,73.882660 364.469330,87.547501 
	C363.715057,88.367798 362.960785,89.188103 361.675873,90.387581 
	C361.122986,91.283531 360.570068,92.179482 359.646545,93.301697 
	C359.646545,93.301697 359.337769,93.607056 358.731964,93.635780 
	C358.112701,94.390602 357.493469,95.145424 356.364349,96.289391 
	C355.241058,97.584694 354.117798,98.879990 352.454468,100.427010 
	C352.014130,101.287682 351.573792,102.148361 351.036377,103.033051 
M409.785675,419.624664 
	C413.301453,412.202026 412.743988,407.800598 407.479828,404.618134 
	C405.547577,402.797272 403.615295,400.976440 401.537537,398.514343 
	C392.700989,389.269409 384.031006,379.857819 374.988068,370.819366 
	C362.060669,357.898346 348.774750,345.336792 335.797089,332.465240 
	C316.753601,313.577423 297.884308,294.514130 278.867889,275.598877 
	C268.367157,265.154022 257.779602,254.794022 247.080475,244.553268 
	C245.068192,242.627167 242.343399,241.445450 239.947372,239.920242 
	C239.374405,242.918503 238.303955,245.916245 238.300842,248.915115 
	C238.210190,336.227417 238.225876,423.539856 238.225906,510.852264 
	C238.225906,513.684692 238.235291,516.517090 238.249802,519.349487 
	C238.268829,523.064392 240.176895,524.818054 243.856277,524.807861 
	C250.354538,524.789917 256.866608,525.081970 263.348297,524.755554 
	C275.803314,524.128357 288.485016,524.424377 300.637543,522.080872 
	C329.944427,516.429443 355.270630,502.702637 376.242828,481.174927 
	C387.180969,469.947052 395.812134,457.169159 402.135315,442.938965 
	C404.924408,436.662201 406.301422,429.757996 408.656433,422.395508 
	C408.860443,421.621674 409.064423,420.847839 409.785675,419.624664 
z"/>
<path fill="#7DB17A" opacity="1.000000" stroke="none" 
	d="
M1.000000,573.500000 
	C211.747452,573.000000 422.494904,573.000000 634.000793,573.000000 
	C634.000793,382.354828 634.000793,192.146072 634.000366,1.468663 
	C634.333313,1.166677 634.943848,1.315930 634.955627,1.502800 
	C635.039062,2.830880 635.000000,4.166667 635.000000,5.500000 
	C635.000000,195.000000 635.000000,384.500000 635.000000,574.000000 
	C423.666656,574.000000 212.333328,574.000000 1.000000,573.500000 
z"/>
<path fill="#00AC58" opacity="1.000000" stroke="none" 
	d="
M75.886230,169.050339 
	C75.603897,168.927948 75.367622,168.745789 75.032486,167.946472 
	C74.379913,163.593079 69.352753,161.371658 71.097618,156.686066 
	C71.158340,156.523010 69.290154,155.175064 68.321945,155.176208 
	C64.148315,155.181122 62.109985,152.517487 60.282356,149.380585 
	C58.605545,146.502502 57.238216,143.315140 55.043388,140.889404 
	C43.505791,128.137955 40.090385,111.683846 35.603764,96.096504 
	C32.491409,85.283646 33.070263,73.408318 32.385620,62.023071 
	C35.236618,62.827091 37.701908,63.615734 39.750065,64.270935 
	C41.898262,63.344894 43.903465,61.750828 45.930271,61.722866 
	C61.355362,61.510067 76.784836,61.557114 92.212631,61.611629 
	C117.812523,61.702084 143.412186,61.858620 169.341782,61.987991 
	C170.111435,61.988152 170.551224,61.987640 171.454041,61.990082 
	C195.284729,61.995056 218.652390,61.997074 242.361374,62.067318 
	C244.804626,62.083725 246.906555,62.031906 249.443085,61.981979 
	C260.671509,61.951633 271.466980,62.022346 282.258759,61.855206 
	C291.197815,61.716755 300.132507,61.297787 309.451904,61.008995 
	C311.498016,61.468830 313.139893,62.060207 314.832855,62.325127 
	C315.846313,62.483715 316.939728,62.131561 318.288361,62.205673 
	C319.373169,64.917686 320.166779,67.433014 320.793579,70.258545 
	C320.422577,71.717606 320.218445,72.866463 320.006348,74.453743 
	C320.317291,78.910339 320.636169,82.928528 320.792999,87.228470 
	C320.424194,88.344940 320.217468,89.179665 320.008240,90.397285 
	C320.322113,94.501099 320.638519,98.222023 320.792358,102.224869 
	C320.424561,103.342674 320.219330,104.178551 320.006561,105.465286 
	C320.317719,109.593262 320.636475,113.270363 320.788940,117.257538 
	C320.418854,118.716431 320.215088,119.865257 320.004089,121.475922 
	C320.001862,125.953918 320.006836,129.970062 320.037292,134.343933 
	C320.331665,136.088959 320.600555,137.476257 320.644592,138.897369 
	C320.419769,138.931168 319.970947,139.004211 319.599365,139.003296 
	C318.482758,139.002594 317.737701,139.002823 316.698120,138.913788 
	C315.602234,138.216965 314.800903,137.609406 313.873352,136.679932 
	C311.507721,133.452911 309.523712,132.989105 307.841705,137.291290 
	C307.605438,141.388657 307.531067,145.153564 307.456299,148.918472 
	C307.303497,156.614594 307.150482,164.310715 306.992126,172.405090 
	C306.659851,174.874863 306.333038,176.946381 306.098633,179.409180 
	C306.454773,181.271927 306.940247,182.742310 306.947601,184.215073 
	C307.014740,197.637985 307.108490,211.062836 306.923096,224.483368 
	C306.881104,227.521561 305.697662,230.531525 305.216980,233.582397 
	C305.030640,234.765106 305.335876,236.025253 305.456085,237.836334 
	C309.197235,234.830673 317.075592,233.509140 318.954193,235.051788 
	C320.687805,236.475388 320.315857,244.065857 318.056335,247.418106 
	C317.411926,244.598923 316.847534,242.129730 315.999329,238.418869 
	C311.491821,247.419159 310.672821,247.606064 303.080505,242.945892 
	C302.250946,242.436707 301.234436,242.232056 300.304657,241.886169 
	C300.304657,241.886169 300.179901,241.819305 300.070312,241.429230 
	C298.731873,239.301834 297.773071,237.264771 296.230865,235.875214 
	C285.253601,225.984680 274.527588,215.758514 260.196442,210.547791 
	C255.450592,208.822220 251.110764,204.572495 246.428391,204.313461 
	C220.535889,202.881027 194.582596,201.445511 168.675385,201.809082 
	C153.945831,202.015808 139.832932,200.483337 125.835907,196.564072 
	C121.703735,195.407028 117.773216,193.529831 112.575188,191.530731 
	C114.628868,190.695267 115.079178,190.543564 115.501167,190.334641 
	C116.839943,189.671753 118.168152,188.987534 119.500458,188.311584 
	C118.100906,187.824417 116.709122,186.949738 115.300369,186.921509 
	C110.757210,186.830444 106.207802,187.051102 101.660797,187.151596 
	C101.017403,187.034149 100.374001,186.916718 99.291275,186.398041 
	C97.228737,184.628891 95.582581,183.287094 93.987625,181.886963 
	C91.528320,179.728058 87.817726,177.931717 86.978386,175.249268 
	C85.832832,171.588181 84.092323,170.874466 80.713097,170.805359 
	C78.914795,170.095856 77.400513,169.573105 75.886230,169.050339 
z"/>
<path fill="#DFE006" opacity="1.000000" stroke="none" 
	d="
M547.403931,185.460678 
	C547.403931,185.460678 547.120483,185.745819 546.618591,185.739182 
	C545.309021,186.069107 544.501282,186.405670 543.367920,186.820145 
	C542.090393,187.463928 541.138550,188.029816 539.889282,188.599243 
	C538.719971,189.043365 537.848083,189.483994 536.733643,189.915314 
	C536.491028,189.906006 536.009705,189.969635 535.707703,190.035889 
	C534.653992,190.763321 533.902222,191.424469 532.876953,192.121185 
	C532.421570,192.184387 532.239746,192.212021 531.721191,192.224487 
	C530.280640,192.823029 529.176697,193.436752 527.704468,194.109726 
	C515.744385,196.726898 504.235809,199.818802 492.529724,201.643539 
	C485.447754,202.747452 478.050873,201.669144 470.810852,201.957108 
	C458.219635,202.457855 445.640320,203.257187 432.961426,203.598465 
	C429.243225,199.513123 425.619629,195.760666 421.819733,191.737656 
	C420.429382,190.643738 419.215302,189.820389 417.781311,188.814972 
	C417.058502,188.363800 416.555603,188.094650 415.932983,187.575073 
	C415.250061,186.870712 414.686768,186.416779 413.998474,185.644104 
	C408.583466,180.552750 403.293488,175.780167 397.807495,170.972565 
	C397.611481,170.937561 397.214111,170.910553 397.072937,170.598938 
	C392.332092,166.133438 387.732483,161.979538 382.934448,157.585815 
	C381.850433,156.833405 380.964813,156.320831 379.961395,155.490494 
	C378.382874,153.752579 376.922150,152.332428 375.424072,150.617462 
	C373.625519,148.760071 371.864288,147.197495 369.952087,145.288788 
	C368.783783,143.694672 367.908447,142.288300 366.724121,141.226608 
	C361.985657,136.978760 357.151245,132.837936 352.387238,128.378815 
	C351.404297,127.299660 350.386383,126.499222 348.961578,125.562614 
	C348.001556,125.281181 347.448486,125.135918 346.712341,124.723846 
	C341.277954,121.957664 343.951111,117.708504 344.364929,113.827812 
	C344.700378,113.438103 344.850403,113.188011 345.261169,112.769463 
	C347.428802,110.467110 349.296967,108.310020 351.427979,105.944748 
	C353.883545,102.472061 356.076202,99.207565 358.445557,95.744644 
	C358.860779,94.899826 359.099274,94.253433 359.337769,93.607056 
	C359.337769,93.607056 359.646545,93.301697 360.084076,93.322510 
	C362.342468,92.286926 364.478943,91.552017 365.934296,90.123291 
	C377.567566,78.702782 390.670715,69.220863 405.940002,63.690453 
	C418.680023,59.076115 431.911713,54.779449 445.266479,53.169777 
	C461.356873,51.230366 477.807129,52.108414 494.102173,52.079567 
	C512.205505,52.047520 530.309753,52.529678 548.412964,52.489513 
	C566.535156,52.449306 584.656494,52.037193 602.778320,51.799679 
	C604.276489,51.780045 605.778137,51.804417 607.274048,51.885315 
	C611.309143,52.103523 613.372314,54.164421 613.174011,58.301357 
	C612.911133,63.784725 612.675476,69.269417 612.402588,74.752266 
	C611.524048,92.404167 607.468567,109.276138 599.375977,125.016800 
	C596.288818,131.021606 592.085083,136.448135 588.930542,142.423477 
	C582.251038,155.075912 572.011230,164.401779 561.217651,173.304306 
	C559.976013,174.328415 559.071838,175.761642 557.807861,177.187531 
	C557.065247,177.853607 556.525940,178.337296 555.619263,178.877640 
	C552.635864,181.109756 550.019897,183.285217 547.403931,185.460678 
z"/>
<path fill="#00AC58" opacity="1.000000" stroke="none" 
	d="
M401.683014,399.155609 
	C403.615295,400.976440 405.547577,402.797272 407.827454,405.196289 
	C411.525146,410.551147 408.446777,415.249817 407.661896,420.154907 
	C400.396393,422.119141 398.671509,427.244843 403.001343,433.361053 
	C399.639099,440.167877 396.334900,446.606781 392.629089,453.016663 
	C391.570801,452.910645 390.911682,452.850098 390.257782,452.754089 
	C384.699005,451.938049 384.410278,452.276123 384.819855,458.053497 
	C385.029999,461.018066 384.968353,464.001862 384.840851,467.254761 
	C379.009460,473.510895 373.170135,479.317902 367.772827,485.510193 
	C360.683960,493.643127 351.363464,498.318817 341.942108,502.767639 
	C340.956757,501.561829 340.138763,499.995026 339.178131,499.902069 
	C335.469055,499.543060 331.694397,499.403412 327.985504,499.699646 
	C326.204102,499.841919 324.514954,501.138947 322.784058,501.913025 
	C324.276093,503.250519 325.569946,505.274200 327.303650,505.774933 
	C330.404022,506.670410 333.769562,506.647888 336.736908,507.206604 
	C327.048920,511.829132 317.807098,516.737244 306.756226,516.827332 
	C304.402679,516.057495 302.363190,515.116577 300.302338,515.067200 
	C284.125366,514.679443 267.944885,514.420471 251.764313,514.215149 
	C245.901199,514.140686 244.224152,515.749573 242.699951,521.777832 
	C241.969315,520.312622 241.114090,519.100220 241.109818,517.884827 
	C241.071976,507.105072 241.188416,496.324829 241.252319,485.544647 
	C241.324036,473.444855 241.474991,461.344696 241.433212,449.245270 
	C241.385620,435.462830 241.028580,421.680817 241.050919,407.899017 
	C241.078918,390.629547 241.494873,373.360443 241.487747,356.091309 
	C241.480087,337.478027 241.117477,318.865234 241.020233,300.251648 
	C240.931686,283.304382 240.969879,266.356293 241.016495,249.408737 
	C241.021515,247.586090 241.454865,245.764618 241.794922,243.124374 
	C243.664627,244.595230 244.762894,245.304184 245.676712,246.201035 
	C263.296265,263.493011 280.917938,280.782959 298.487885,298.125305 
	C309.213562,308.712036 319.860382,319.378723 330.528992,330.023163 
	C342.048737,341.516785 353.590729,352.988617 365.028564,364.563354 
	C367.100830,366.660431 368.482666,369.449524 370.591797,371.498657 
	C375.459015,376.227356 380.526611,380.754791 385.607300,385.257324 
	C390.908234,389.955139 396.319794,394.528076 401.683014,399.155609 
M378.585052,467.231293 
	C376.451263,467.218292 374.173035,466.744202 372.233734,467.351868 
	C370.905701,467.768036 370.049652,469.690399 368.982574,470.939423 
	C372.528900,471.437012 374.984711,471.271088 377.392578,470.838318 
	C379.170563,470.518738 381.372162,470.118683 378.585052,467.231293 
M354.135040,487.354095 
	C354.311615,488.384216 354.488220,489.414337 354.526947,489.640228 
	C357.793304,488.173767 360.797455,486.825012 363.801605,485.476257 
	C360.411438,484.979980 356.510223,480.241455 354.135040,487.354095 
M405.516418,408.929626 
	C404.539642,407.841583 403.562866,406.753540 402.586121,405.665497 
	C402.048096,405.906677 401.510101,406.147827 400.972107,406.389008 
	C401.369934,408.241058 401.767792,410.093109 402.165619,411.945160 
	C403.315765,411.160980 404.465881,410.376801 405.516418,408.929626 
z"/>
<path fill="#099A41" opacity="1.000000" stroke="none" 
	d="
M342.043945,503.083618 
	C351.363464,498.318817 360.683960,493.643127 367.772827,485.510193 
	C373.170135,479.317902 379.009460,473.510895 385.102539,467.051880 
	C388.045502,462.062714 390.538086,457.554199 393.030701,453.045654 
	C396.334900,446.606781 399.639099,440.167877 403.284058,433.171387 
	C405.189728,429.455383 406.754608,426.297028 408.319519,423.138641 
	C406.301422,429.757996 404.924408,436.662201 402.135315,442.938965 
	C395.812134,457.169159 387.180969,469.947052 376.242828,481.174927 
	C355.270630,502.702637 329.944427,516.429443 300.637543,522.080872 
	C288.485016,524.424377 275.803314,524.128357 263.348297,524.755554 
	C256.866608,525.081970 250.354538,524.789917 243.856277,524.807861 
	C240.176895,524.818054 238.268829,523.064392 238.249802,519.349487 
	C238.235291,516.517090 238.225906,513.684692 238.225906,510.852264 
	C238.225876,423.539856 238.210190,336.227417 238.300842,248.915115 
	C238.303955,245.916245 239.374405,242.918503 239.947388,239.920242 
	C242.343399,241.445450 245.068192,242.627167 247.080475,244.553268 
	C257.779602,254.794022 268.367157,265.154022 278.867889,275.598877 
	C297.884308,294.514130 316.753601,313.577423 335.797089,332.465240 
	C348.774750,345.336792 362.060669,357.898346 374.988068,370.819366 
	C384.031006,379.857819 392.700989,389.269409 401.610291,398.834961 
	C396.319794,394.528076 390.908234,389.955139 385.607300,385.257324 
	C380.526611,380.754791 375.459015,376.227356 370.591797,371.498657 
	C368.482666,369.449524 367.100830,366.660431 365.028564,364.563354 
	C353.590729,352.988617 342.048737,341.516785 330.528992,330.023163 
	C319.860382,319.378723 309.213562,308.712036 298.487885,298.125305 
	C280.917938,280.782959 263.296265,263.493011 245.676712,246.201035 
	C244.762894,245.304184 243.664627,244.595230 241.794922,243.124374 
	C241.454865,245.764618 241.021515,247.586090 241.016495,249.408737 
	C240.969879,266.356293 240.931686,283.304382 241.020233,300.251648 
	C241.117477,318.865234 241.480087,337.478027 241.487747,356.091309 
	C241.494873,373.360443 241.078918,390.629547 241.050919,407.899017 
	C241.028580,421.680817 241.385620,435.462830 241.433212,449.245270 
	C241.474991,461.344696 241.324036,473.444855 241.252319,485.544647 
	C241.188416,496.324829 241.071976,507.105072 241.109818,517.884827 
	C241.114090,519.100220 241.969315,520.312622 243.135254,521.780273 
	C247.267548,521.668884 250.699982,520.953003 254.120392,521.006470 
	C263.051910,521.146057 271.975952,521.763489 280.907440,521.900269 
	C284.898560,521.961426 288.969177,521.679993 292.879669,520.917725 
	C297.674438,519.983032 302.339325,518.382141 307.060364,517.069214 
	C317.807098,516.737244 327.048920,511.829132 337.027283,507.062073 
	C339.084656,505.507904 340.564301,504.295776 342.043945,503.083618 
z"/>
<path fill="#05A751" opacity="1.000000" stroke="none" 
	d="
M31.999916,62.007690 
	C33.070263,73.408318 32.491409,85.283646 35.603764,96.096504 
	C40.090385,111.683846 43.505791,128.137955 55.043388,140.889404 
	C57.238216,143.315140 58.605545,146.502502 60.282356,149.380585 
	C62.109985,152.517487 64.148315,155.181122 68.321945,155.176208 
	C69.290154,155.175064 71.158340,156.523010 71.097618,156.686066 
	C69.352753,161.371658 74.379913,163.593079 74.917572,167.752380 
	C70.293663,163.700211 65.089310,159.730911 61.083771,154.789780 
	C46.031891,136.222183 36.009220,115.037506 31.799164,91.554077 
	C29.758619,80.172066 29.857302,68.383720 29.323570,56.763897 
	C29.051197,50.834106 29.974670,50.142929 35.930264,50.133972 
	C62.088600,50.094627 88.247017,50.110989 114.405411,50.108829 
	C181.384140,50.103310 248.362915,50.074841 315.341492,50.178135 
	C318.111237,50.182404 322.785004,48.362011 321.756470,54.679672 
	C320.859528,54.983051 320.430176,54.983963 319.896057,54.622139 
	C317.774963,53.508045 315.764526,52.122890 313.741516,52.104298 
	C295.420258,51.935925 277.096802,52.005550 258.773987,52.007370 
	C245.281754,52.008709 231.789505,52.007336 218.297272,52.020214 
	C215.391449,52.022987 212.409760,51.960430 211.639465,56.011425 
	C208.589218,56.069141 205.888794,56.081894 203.188354,56.089069 
	C201.396057,56.093830 199.592117,55.958050 197.813461,56.114059 
	C190.377151,56.766304 182.949371,57.515312 175.514694,58.187241 
	C175.056808,58.228619 174.572296,57.803444 174.090576,57.778225 
	C166.295990,57.370159 158.501511,56.947102 150.702179,56.657162 
	C149.597656,56.616100 148.475220,57.505638 147.348465,57.539074 
	C140.908722,57.730145 134.465210,57.794163 128.022766,57.887688 
	C127.880501,57.889755 127.740715,57.665844 127.591675,57.654587 
	C123.584061,57.351933 119.577812,57.018734 115.565353,56.800976 
	C114.438843,56.739841 113.185249,57.391792 112.174019,57.093220 
	C104.197800,54.738232 95.927551,60.094868 88.019287,56.132420 
	C87.541100,55.892830 86.565369,56.095612 86.106529,56.455948 
	C82.708176,59.124744 79.247635,57.725254 75.717148,56.875797 
	C74.331398,56.542377 72.811256,56.749241 71.352173,56.742615 
	C68.111816,56.727905 64.870682,56.692951 61.631237,56.747463 
	C59.857155,56.777321 58.064232,56.840626 56.318859,57.126934 
	C54.205788,57.473564 52.120762,58.533615 50.046841,58.474152 
	C43.959862,58.299644 37.884396,57.723412 30.898664,57.242104 
	C31.448833,59.622921 31.724377,60.815304 31.999916,62.007690 
z"/>
<path fill="#97BA04" opacity="1.000000" stroke="none" 
	d="
M558.011169,177.005157 
	C559.071838,175.761642 559.976013,174.328415 561.217651,173.304306 
	C572.011230,164.401779 582.251038,155.075912 588.930542,142.423477 
	C592.085083,136.448135 596.288818,131.021606 599.375977,125.016800 
	C607.468567,109.276138 611.524048,92.404167 612.402588,74.752266 
	C612.675476,69.269417 612.911133,63.784725 613.174011,58.301357 
	C613.372314,54.164421 611.309143,52.103523 607.274048,51.885315 
	C605.778137,51.804417 604.276489,51.780045 602.778320,51.799679 
	C584.656494,52.037193 566.535156,52.449306 548.412964,52.489513 
	C530.309753,52.529678 512.205505,52.047520 494.102173,52.079567 
	C477.807129,52.108414 461.356873,51.230366 445.266479,53.169777 
	C431.911713,54.779449 418.680023,59.076115 405.940002,63.690453 
	C390.670715,69.220863 377.567566,78.702782 365.934296,90.123291 
	C364.478943,91.552017 362.342468,92.286926 360.269409,93.209381 
	C360.570068,92.179482 361.122986,91.283531 362.217529,90.118988 
	C363.518341,89.050316 364.277466,88.250252 365.036560,87.450180 
	C378.740417,73.882660 395.015625,64.597298 412.982605,57.806984 
	C439.628815,47.736546 467.357910,49.849533 494.916626,49.769207 
	C531.375610,49.662937 567.834778,49.642540 604.293762,49.527554 
	C615.824646,49.491188 615.521606,49.412186 615.737915,61.073280 
	C616.280640,90.337097 609.517700,117.559074 593.224121,142.023788 
	C584.351868,155.345505 574.256104,167.712296 560.184143,177.012085 
	C558.994995,177.050949 558.503113,177.028061 558.011169,177.005157 
z"/>
<path fill="#7CB60C" opacity="1.000000" stroke="none" 
	d="
M536.009705,189.969635 
	C536.009705,189.969635 536.491028,189.906006 536.890137,190.098389 
	C537.513062,190.520065 537.732422,190.753571 537.947327,190.991226 
	C529.824402,194.211685 521.864746,197.959564 513.542542,200.536453 
	C498.852905,205.084930 483.610687,204.687973 468.426544,204.222015 
	C451.644104,203.707001 434.977020,204.805252 419.428894,211.627960 
	C391.006012,224.100281 372.010315,244.896545 365.583282,275.858826 
	C364.175934,282.638885 364.148376,289.699219 363.316742,296.610199 
	C363.153839,297.963745 362.507599,299.595886 361.515656,300.381989 
	C360.953033,300.827850 358.897430,300.173218 358.088837,299.407471 
	C346.243652,288.189087 334.490479,276.873444 322.742493,265.552826 
	C322.288269,265.115143 322.105103,264.396210 321.795563,263.124023 
	C321.864014,255.454269 321.898438,248.468292 322.007050,241.483459 
	C322.441772,213.527405 322.899536,185.571732 323.348755,157.615906 
	C325.812500,150.430176 327.813721,143.040695 330.864990,136.113800 
	C334.175049,128.599487 338.462830,121.515892 342.681885,114.146439 
	C343.039551,114.048393 343.227448,114.242599 343.092285,114.536537 
	C341.622894,117.869232 340.288727,120.907990 338.848450,124.292236 
	C335.152954,133.720474 331.597992,142.817032 327.965759,151.882629 
	C323.129425,163.953323 323.851868,176.640610 323.909698,189.215195 
	C323.950775,198.154480 324.539825,207.091248 324.729889,216.402313 
	C324.345398,220.181763 324.115387,223.588043 323.874756,227.445038 
	C323.876404,230.604691 323.888702,233.313629 323.880280,236.391113 
	C323.873199,237.497452 323.886871,238.235260 323.886780,239.444702 
	C324.228485,247.985580 324.583954,256.054810 325.149780,264.376984 
	C328.991180,267.744904 332.732971,270.741119 336.227997,274.001862 
	C341.886108,279.280701 347.382172,284.733246 353.125305,290.390686 
	C354.974823,292.318970 356.645752,293.968903 359.082764,296.375366 
	C360.212982,289.567322 360.944366,284.059479 362.062134,278.631195 
	C365.689911,261.013489 371.649170,244.557999 385.522888,232.048111 
	C388.958313,228.950409 392.012421,225.429779 395.496704,222.054474 
	C396.209991,221.770065 396.668365,221.534760 397.427734,221.149872 
	C399.569672,219.413513 401.410553,217.826752 403.592712,216.168427 
	C408.230530,213.420776 413.422302,211.504333 416.540955,207.828842 
	C419.046417,204.876053 421.046021,202.763184 424.825928,202.941360 
	C427.578735,203.071106 430.313293,203.587402 433.056000,203.931351 
	C445.640320,203.257187 458.219635,202.457855 470.810852,201.957108 
	C478.050873,201.669144 485.447754,202.747452 492.529724,201.643539 
	C504.235809,199.818802 515.744385,196.726898 528.036865,194.085083 
	C529.844360,193.414001 530.951111,192.826828 532.057861,192.239655 
	C532.239746,192.212021 532.421570,192.184387 533.180054,192.051331 
	C534.507751,191.287140 535.258728,190.628387 536.009705,189.969635 
z"/>
<path fill="#0EA954" opacity="1.000000" stroke="none" 
	d="
M323.158386,157.156723 
	C322.899536,185.571732 322.441772,213.527405 322.007050,241.483459 
	C321.898438,248.468292 321.864014,255.454269 321.663269,262.852661 
	C314.546143,256.333160 307.561279,249.400711 300.440552,242.177216 
	C301.234436,242.232056 302.250946,242.436707 303.080505,242.945892 
	C310.672821,247.606064 311.491821,247.419159 315.999329,238.418869 
	C316.847534,242.129730 317.411926,244.598923 318.056335,247.418106 
	C320.315857,244.065857 320.687805,236.475388 318.954193,235.051788 
	C317.075592,233.509140 309.197235,234.830673 305.456085,237.836334 
	C305.335876,236.025253 305.030640,234.765106 305.216980,233.582397 
	C305.697662,230.531525 306.881104,227.521561 306.923096,224.483368 
	C307.108490,211.062836 307.014740,197.637985 306.947601,184.215073 
	C306.940247,182.742310 306.454773,181.271927 306.462585,179.448151 
	C308.801086,180.343948 310.828217,181.665878 312.950470,182.811462 
	C314.158264,183.463425 315.808044,184.530899 316.745026,184.149399 
	C318.024231,183.628555 319.207092,182.046967 319.706482,180.659286 
	C320.241486,179.172607 319.987274,177.383316 319.988190,175.726044 
	C319.994995,163.485428 319.979431,151.244827 319.970947,139.004211 
	C319.970947,139.004211 320.419769,138.931168 320.831360,138.922699 
	C321.242981,138.914215 321.615509,138.942566 321.615540,138.942566 
	C322.066345,144.860886 322.517151,150.779221 323.158386,157.156723 
z"/>
<path fill="#0EA954" opacity="1.000000" stroke="none" 
	d="
M101.843597,187.441223 
	C106.207802,187.051102 110.757210,186.830444 115.300369,186.921509 
	C116.709122,186.949738 118.100906,187.824417 119.500458,188.311584 
	C118.168152,188.987534 116.839943,189.671753 115.501167,190.334641 
	C115.079178,190.543564 114.628868,190.695267 112.575188,191.530731 
	C117.773216,193.529831 121.703735,195.407028 125.835907,196.564072 
	C139.832932,200.483337 153.945831,202.015808 168.675385,201.809082 
	C194.582596,201.445511 220.535889,202.881027 246.428391,204.313461 
	C251.110764,204.572495 255.450592,208.822220 260.196442,210.547791 
	C274.527588,215.758514 285.253601,225.984680 296.230865,235.875214 
	C297.773071,237.264771 298.731873,239.301834 300.036926,241.366821 
	C294.111572,236.464966 288.331635,230.951584 282.066284,226.059875 
	C264.210480,212.118835 243.785736,204.515900 221.194382,203.922867 
	C197.900406,203.311401 174.567551,204.151382 151.275650,203.500198 
	C134.570633,203.033142 119.009438,197.417404 104.250046,189.700943 
	C103.398308,189.255630 102.762634,188.397079 101.843597,187.441223 
z"/>
<path fill="#109D47" opacity="1.000000" stroke="none" 
	d="
M80.997116,170.992096 
	C84.092323,170.874466 85.832832,171.588181 86.978386,175.249268 
	C87.817726,177.931717 91.528320,179.728058 93.987625,181.886963 
	C95.582581,183.287094 97.228737,184.628891 98.985596,186.277817 
	C92.495422,181.911667 85.871605,177.264526 79.382538,172.208893 
	C80.010567,171.530960 80.503845,171.261536 80.997116,170.992096 
z"/>
<path fill="#109D47" opacity="1.000000" stroke="none" 
	d="
M408.487976,422.767090 
	C406.754608,426.297028 405.189728,429.455383 403.342133,432.803467 
	C398.671509,427.244843 400.396393,422.119141 407.978271,420.178925 
	C408.846497,420.043732 409.057495,420.058899 409.268433,420.074036 
	C409.064423,420.847839 408.860443,421.621674 408.487976,422.767090 
z"/>
<path fill="#0EA954" opacity="1.000000" stroke="none" 
	d="
M320.000854,54.984879 
	C320.430176,54.983963 320.859528,54.983051 321.610199,54.978416 
	C321.915253,59.685528 321.898926,64.396362 321.617798,69.548431 
	C321.352997,69.989662 320.960419,69.948334 320.960419,69.948334 
	C320.166779,67.433014 319.373169,64.917686 318.205627,61.918732 
	C318.554810,59.285027 319.277832,57.134953 320.000854,54.984879 
z"/>
<path fill="#099A41" opacity="1.000000" stroke="none" 
	d="
M409.527069,419.849365 
	C409.057495,420.058899 408.846497,420.043732 408.319153,420.004517 
	C408.446777,415.249817 411.525146,410.551147 408.059631,405.429565 
	C412.743988,407.800598 413.301453,412.202026 409.527069,419.849365 
z"/>
<path fill="#0EA954" opacity="1.000000" stroke="none" 
	d="
M320.955048,86.946709 
	C320.636169,82.928528 320.317291,78.910339 320.285034,74.445908 
	C320.941650,73.984901 321.311646,73.970154 321.681610,73.955406 
	C321.752869,78.004784 321.824127,82.054161 321.625977,86.543869 
	C321.356506,86.984207 320.955048,86.946709 320.955048,86.946709 
z"/>
<path fill="#0EA954" opacity="1.000000" stroke="none" 
	d="
M320.011810,133.986221 
	C320.006836,129.970062 320.001862,125.953918 320.281982,121.468430 
	C320.935852,120.984512 321.304565,120.969940 321.673309,120.955368 
	C321.724426,125.011314 321.775543,129.067261 321.474640,133.570969 
	C320.752380,134.007889 320.382080,133.997055 320.011810,133.986221 
z"/>
<path fill="#0EA954" opacity="1.000000" stroke="none" 
	d="
M320.954926,101.942940 
	C320.638519,98.222023 320.322113,94.501099 320.293854,90.389450 
	C320.961395,89.983795 321.340820,89.968872 321.720215,89.953941 
	C321.763763,93.671402 321.807343,97.388870 321.590759,101.543541 
	C321.330597,101.980751 320.954926,101.942940 320.954926,101.942940 
z"/>
<path fill="#97BA04" opacity="1.000000" stroke="none" 
	d="
M358.268860,95.943069 
	C356.076202,99.207565 353.883545,102.472061 351.338989,105.863647 
	C350.987122,105.990730 350.809052,105.828560 350.857483,105.494003 
	C350.955078,104.483498 351.004242,103.807549 351.053406,103.131592 
	C351.053406,103.131592 351.036377,103.033051 351.320740,102.848694 
	C352.068237,101.834663 352.531372,101.004982 352.994537,100.175293 
	C354.117798,98.879990 355.241058,97.584694 356.967651,96.111526 
	C357.803558,95.936798 358.036224,95.939926 358.268860,95.943069 
z"/>
<path fill="#0EA954" opacity="1.000000" stroke="none" 
	d="
M320.955231,116.947464 
	C320.636475,113.270363 320.317719,109.593262 320.283386,105.457306 
	C320.935303,104.983246 321.302856,104.968025 321.670380,104.952805 
	C321.744873,108.671249 321.819397,112.389694 321.624817,116.546371 
	C321.355713,116.984604 320.955231,116.947464 320.955231,116.947464 
z"/>
<path fill="#97BA04" opacity="1.000000" stroke="none" 
	d="
M547.755127,185.469086 
	C550.019897,183.285217 552.635864,181.109756 555.508667,179.135895 
	C555.525879,179.837967 555.286316,180.338425 555.046753,180.838898 
	C552.733276,182.385101 550.419739,183.931305 547.755127,185.469086 
z"/>
<path fill="#97BA04" opacity="1.000000" stroke="none" 
	d="
M351.076111,106.071831 
	C349.296967,108.310020 347.428802,110.467110 345.260254,112.441956 
	C344.955902,111.822693 344.951935,111.385689 344.947998,110.948685 
	C345.830261,109.743561 346.712524,108.538437 348.133423,107.049698 
	C349.384399,106.453575 350.096741,106.141068 350.809052,105.828560 
	C350.809052,105.828560 350.987122,105.990730 351.076111,106.071831 
z"/>
<path fill="#7CB60C" opacity="1.000000" stroke="none" 
	d="
M540.186768,188.595718 
	C541.138550,188.029816 542.090393,187.463928 543.765564,186.875916 
	C545.018860,186.916626 545.548706,186.979492 546.078613,187.042358 
	C544.242798,188.058060 542.406921,189.073776 540.264893,189.897156 
	C540.034729,189.335114 540.110718,188.965408 540.186768,188.595718 
z"/>
<path fill="#05A751" opacity="1.000000" stroke="none" 
	d="
M320.037292,134.343933 
	C320.382080,133.997055 320.752380,134.007889 321.397430,134.032013 
	C321.781433,135.496521 321.890686,136.947739 321.807709,138.670776 
	C321.615509,138.942566 321.242981,138.914215 321.056213,138.888885 
	C320.600555,137.476257 320.331665,136.088959 320.037292,134.343933 
z"/>
<path fill="#05A751" opacity="1.000000" stroke="none" 
	d="
M321.857666,73.704880 
	C321.311646,73.970154 320.941650,73.984901 320.292999,74.007492 
	C320.218445,72.866463 320.422577,71.717606 320.793579,70.258545 
	C320.960419,69.948334 321.352997,69.989662 321.547760,70.012291 
	C321.839600,71.174736 321.936676,72.314545 321.857666,73.704880 
z"/>
<path fill="#7CB60C" opacity="1.000000" stroke="none" 
	d="
M555.376648,180.809708 
	C555.286316,180.338425 555.525879,179.837967 555.876038,179.079239 
	C556.525940,178.337296 557.065247,177.853607 557.807861,177.187546 
	C558.503113,177.028061 558.994995,177.050949 559.854309,177.111084 
	C558.716614,178.359055 557.211609,179.569794 555.376648,180.809708 
z"/>
<path fill="#05A751" opacity="1.000000" stroke="none" 
	d="
M80.713104,170.805359 
	C80.503845,171.261536 80.010567,171.530960 79.252197,171.897919 
	C78.027512,171.215424 77.067924,170.435379 75.997284,169.352844 
	C77.400513,169.573105 78.914795,170.095856 80.713104,170.805359 
z"/>
<path fill="#05A751" opacity="1.000000" stroke="none" 
	d="
M320.788940,117.257538 
	C320.955231,116.947464 321.355713,116.984604 321.554260,117.005409 
	C321.843201,118.173698 321.933624,119.321182 321.848694,120.712021 
	C321.304565,120.969940 320.935852,120.984512 320.289215,121.006577 
	C320.215088,119.865257 320.418854,118.716431 320.788940,117.257538 
z"/>
<path fill="#7CB60C" opacity="1.000000" stroke="none" 
	d="
M350.857483,105.494003 
	C350.096741,106.141068 349.384399,106.453575 348.398010,106.863190 
	C348.902771,105.757278 349.681610,104.554260 350.756927,103.241417 
	C351.004242,103.807549 350.955078,104.483498 350.857483,105.494003 
z"/>
<path fill="#05A751" opacity="1.000000" stroke="none" 
	d="
M321.822235,104.738770 
	C321.302856,104.968025 320.935303,104.983246 320.290955,105.006447 
	C320.219330,104.178551 320.424561,103.342674 320.792358,102.224869 
	C320.954926,101.942940 321.330597,101.980751 321.516510,102.001617 
	C321.792999,102.856575 321.883545,103.690651 321.822235,104.738770 
z"/>
<path fill="#05A751" opacity="1.000000" stroke="none" 
	d="
M321.870117,89.739487 
	C321.340820,89.968872 320.961395,89.983795 320.296387,90.006561 
	C320.217468,89.179665 320.424194,88.344940 320.792999,87.228470 
	C320.955048,86.946709 321.356506,86.984207 321.555542,87.004990 
	C321.843079,87.858864 321.931549,88.691948 321.870117,89.739487 
z"/>
<path fill="#7CB60C" opacity="1.000000" stroke="none" 
	d="
M364.752930,87.498840 
	C364.277466,88.250252 363.518341,89.050316 362.482849,89.929398 
	C362.960785,89.188103 363.715057,88.367798 364.752930,87.498840 
z"/>
<path fill="#97BA04" opacity="1.000000" stroke="none" 
	d="
M539.889282,188.599243 
	C540.110718,188.965408 540.034729,189.335114 539.948120,189.894379 
	C539.508545,190.316742 539.079651,190.549545 538.299072,190.886810 
	C537.732422,190.753571 537.513062,190.520065 537.132751,190.107681 
	C537.848083,189.483994 538.719971,189.043365 539.889282,188.599243 
z"/>
<path fill="#7CB60C" opacity="1.000000" stroke="none" 
	d="
M344.684845,111.104507 
	C344.951935,111.385689 344.955902,111.822693 344.960785,112.587212 
	C344.850403,113.188011 344.700378,113.438103 344.115051,113.882950 
	C343.554749,114.148140 343.391113,114.195374 343.227448,114.242599 
	C343.227448,114.242599 343.039551,114.048393 342.945404,113.951355 
	C343.374756,112.989647 343.898254,112.124992 344.684845,111.104507 
z"/>
<path fill="#7CB60C" opacity="1.000000" stroke="none" 
	d="
M358.445557,95.744637 
	C358.036224,95.939926 357.803558,95.936798 357.222565,95.916954 
	C357.493469,95.145424 358.112701,94.390602 359.034851,93.621414 
	C359.099274,94.253433 358.860779,94.899826 358.445557,95.744637 
z"/>
<path fill="#7CB60C" opacity="1.000000" stroke="none" 
	d="
M352.724487,100.301155 
	C352.531372,101.004982 352.068237,101.834663 351.369263,102.836685 
	C351.573792,102.148361 352.014130,101.287682 352.724487,100.301155 
z"/>
<path fill="#97BA04" opacity="1.000000" stroke="none" 
	d="
M546.275574,186.913971 
	C545.548706,186.979492 545.018860,186.916626 544.091309,186.798004 
	C544.501282,186.405670 545.309021,186.069107 546.440796,185.833099 
	C546.837585,186.276001 546.740112,186.559967 546.275574,186.913971 
z"/>
<path fill="#13AD5B" opacity="1.000000" stroke="none" 
	d="
M32.385624,62.023071 
	C31.724377,60.815304 31.448833,59.622921 30.898664,57.242104 
	C37.884396,57.723412 43.959862,58.299644 50.046841,58.474152 
	C52.120762,58.533615 54.205788,57.473564 56.318859,57.126934 
	C58.064232,56.840626 59.857155,56.777321 61.631237,56.747463 
	C64.870682,56.692951 68.111816,56.727905 71.352173,56.742615 
	C72.811256,56.749241 74.331398,56.542377 75.717148,56.875797 
	C79.247635,57.725254 82.708176,59.124744 86.106529,56.455948 
	C86.565369,56.095612 87.541100,55.892830 88.019287,56.132420 
	C95.927551,60.094868 104.197800,54.738232 112.174019,57.093220 
	C113.185249,57.391792 114.438843,56.739841 115.565353,56.800976 
	C119.577812,57.018734 123.584061,57.351933 127.591675,57.654587 
	C127.740715,57.665844 127.880501,57.889755 128.022766,57.887688 
	C134.465210,57.794163 140.908722,57.730145 147.348465,57.539074 
	C148.475220,57.505638 149.597656,56.616100 150.702179,56.657162 
	C158.501511,56.947102 166.295990,57.370159 174.090576,57.778225 
	C174.572296,57.803444 175.056808,58.228619 175.514694,58.187241 
	C182.949371,57.515312 190.377151,56.766304 197.813461,56.114059 
	C199.592117,55.958050 201.396057,56.093830 203.188354,56.089069 
	C205.888794,56.081894 208.589218,56.069141 211.990143,56.189796 
	C217.940002,56.954090 223.037567,59.256714 228.538589,56.825001 
	C230.227081,56.078621 232.687332,57.076851 234.793991,57.278179 
	C237.203491,57.508442 239.612762,57.740925 242.020493,58.375847 
	C242.019257,59.852528 242.019669,60.925812 242.020065,61.999092 
	C218.652390,61.997074 195.284729,61.995056 171.357956,61.800327 
	C170.203217,61.734184 169.607574,61.860752 169.011932,61.987320 
	C143.412186,61.858620 117.812523,61.702084 92.212631,61.611629 
	C76.784836,61.557114 61.355362,61.510067 45.930271,61.722866 
	C43.903465,61.750828 41.898262,63.344894 39.750065,64.270935 
	C37.701908,63.615734 35.236618,62.827091 32.385624,62.023071 
z"/>
<path fill="#00AC58" opacity="1.000000" stroke="none" 
	d="
M242.022141,57.972443 
	C239.612762,57.740925 237.203491,57.508442 234.793991,57.278179 
	C232.687332,57.076851 230.227081,56.078621 228.538589,56.825001 
	C223.037567,59.256714 217.940002,56.954090 212.339951,56.142456 
	C212.409760,51.960430 215.391449,52.022987 218.297272,52.020214 
	C231.789505,52.007336 245.281754,52.008709 258.773987,52.007370 
	C277.096802,52.005550 295.420258,51.935925 313.741516,52.104298 
	C315.764526,52.122890 317.774963,53.508045 319.896057,54.622139 
	C319.277832,57.134953 318.554810,59.285027 317.914490,61.722038 
	C316.939728,62.131561 315.846313,62.483715 314.832855,62.325127 
	C313.139893,62.060207 311.498016,61.468830 309.362305,60.672676 
	C308.408844,59.682926 307.981781,58.523136 307.438385,58.465824 
	C300.879395,57.773956 294.307129,57.191467 287.728668,56.712315 
	C286.144836,56.596947 284.528381,57.011711 282.922424,57.100952 
	C279.199371,57.307838 275.473389,57.461590 271.748901,57.643307 
	C269.825043,57.737167 267.901886,57.844765 265.850861,57.694344 
	C265.158020,56.966942 264.592743,56.491352 263.627075,56.029999 
	C258.772247,55.855137 254.631958,59.927608 249.584106,57.012260 
	C246.801407,57.326508 244.411774,57.649471 242.022141,57.972443 
z"/>
<path fill="#0DAB59" opacity="1.000000" stroke="none" 
	d="
M306.997559,172.006836 
	C307.150482,164.310715 307.303497,156.614594 307.456299,148.918472 
	C307.531067,145.153564 307.605438,141.388657 308.269531,137.298828 
	C310.572601,136.983215 312.286072,136.992523 313.999573,137.001831 
	C314.800903,137.609406 315.602234,138.216965 316.681793,139.291260 
	C316.659637,140.861984 316.695557,142.286240 316.001343,143.015228 
	C312.787384,146.390244 312.748230,149.442734 315.897034,152.972916 
	C316.628326,153.792770 316.484924,156.657135 315.674011,157.379364 
	C311.038879,161.507538 312.563934,165.020294 316.111267,168.702957 
	C316.812958,169.431381 317.060974,170.596802 317.729828,172.006836 
	C313.765533,172.006836 310.381561,172.006836 306.997559,172.006836 
z"/>
<path fill="#00AC58" opacity="1.000000" stroke="none" 
	d="
M306.992126,172.405090 
	C310.381561,172.006836 313.765533,172.006836 317.729828,172.006836 
	C317.060974,170.596802 316.812958,169.431381 316.111267,168.702957 
	C312.563934,165.020294 311.038879,161.507538 315.674011,157.379364 
	C316.484924,156.657135 316.628326,153.792770 315.897034,152.972916 
	C312.748230,149.442734 312.787384,146.390244 316.001343,143.015228 
	C316.695557,142.286240 316.659637,140.861984 316.976349,139.380508 
	C317.737701,139.002823 318.482758,139.002594 319.599365,139.003296 
	C319.979431,151.244827 319.994995,163.485428 319.988190,175.726044 
	C319.987274,177.383316 320.241486,179.172607 319.706482,180.659286 
	C319.207092,182.046967 318.024231,183.628555 316.745026,184.149399 
	C315.808044,184.530899 314.158264,183.463425 312.950470,182.811462 
	C310.828217,181.665878 308.801086,180.343948 306.370178,179.056885 
	C306.333038,176.946381 306.659851,174.874863 306.992126,172.405090 
M316.391846,179.184509 
	C316.063019,178.791702 315.734222,178.398911 315.405396,178.006104 
	C315.151733,178.513062 314.898071,179.020004 314.644379,179.526947 
	C315.158600,179.547211 315.672852,179.567459 316.391846,179.184509 
z"/>
<path fill="#13AD5B" opacity="1.000000" stroke="none" 
	d="
M249.977173,57.020985 
	C254.631958,59.927608 258.772247,55.855137 263.750641,56.285812 
	C264.842529,57.000317 265.410461,57.473240 265.978394,57.946163 
	C267.901886,57.844765 269.825043,57.737167 271.748901,57.643307 
	C275.473389,57.461590 279.199371,57.307838 282.922424,57.100952 
	C284.528381,57.011711 286.144836,56.596947 287.728668,56.712315 
	C294.307129,57.191467 300.879395,57.773956 307.438385,58.465824 
	C307.981781,58.523136 308.408844,59.682926 308.979553,60.666786 
	C300.132507,61.297787 291.197815,61.716755 282.258759,61.855206 
	C271.466980,62.022346 260.671509,61.951633 249.453293,61.617249 
	C249.345001,59.840748 249.661087,58.430866 249.977173,57.020985 
z"/>
<path fill="#05A751" opacity="1.000000" stroke="none" 
	d="
M249.584106,57.012260 
	C249.661087,58.430866 249.345001,59.840748 249.018707,61.615356 
	C246.906555,62.031906 244.804626,62.083725 242.361374,62.067318 
	C242.019669,60.925812 242.019257,59.852528 242.020493,58.375843 
	C244.411774,57.649471 246.801407,57.326508 249.584106,57.012260 
z"/>
<path fill="#00AC58" opacity="1.000000" stroke="none" 
	d="
M313.873352,136.679932 
	C312.286072,136.992523 310.572601,136.983215 308.431274,136.966370 
	C309.523712,132.989105 311.507721,133.452911 313.873352,136.679932 
z"/>
<path fill="#05A751" opacity="1.000000" stroke="none" 
	d="
M169.341782,61.987991 
	C169.607574,61.860752 170.203217,61.734184 170.894943,61.797375 
	C170.551224,61.987640 170.111435,61.988152 169.341782,61.987991 
z"/>
<path fill="#AACF06" opacity="1.000000" stroke="none" 
	d="
M324.884338,216.029129 
	C324.539825,207.091248 323.950775,198.154480 323.909698,189.215195 
	C323.851868,176.640610 323.129425,163.953323 327.965759,151.882629 
	C331.597992,142.817032 335.152954,133.720474 339.256470,124.298141 
	C342.145538,124.302605 344.520477,124.646629 346.895386,124.990646 
	C347.448486,125.135918 348.001556,125.281181 349.035767,125.770638 
	C350.462006,126.962387 351.407166,127.809944 352.352295,128.657501 
	C357.151245,132.837936 361.985657,136.978760 366.724121,141.226608 
	C367.908447,142.288300 368.783783,143.694672 370.057434,145.531219 
	C370.558380,147.051147 370.803009,147.982498 370.880493,148.995270 
	C370.575806,149.358505 370.438263,149.640335 370.300720,149.922165 
	C370.562347,149.598816 370.824005,149.275467 371.392395,149.027344 
	C372.953217,149.705811 374.207336,150.309052 375.461426,150.912292 
	C376.922150,152.332428 378.382874,153.752579 379.895050,155.800705 
	C377.320801,160.501602 375.326843,155.011978 372.738190,155.949020 
	C370.869232,156.625549 368.724823,156.541077 366.703247,156.796005 
	C367.407410,158.455963 368.111603,160.115936 369.267303,162.840363 
	C365.976837,164.256973 362.584198,165.634552 359.272644,167.185364 
	C358.001343,167.780716 356.787964,168.652191 355.837219,169.668289 
	C355.610443,169.910660 356.355896,171.730042 356.978210,171.964630 
	C358.397034,172.499557 360.021515,172.680649 361.552368,172.638474 
	C362.226013,172.619919 362.803192,171.525269 363.547485,171.231339 
	C366.893005,169.910156 370.340210,167.537628 373.644257,167.700775 
	C379.960693,168.012680 383.387817,174.235184 381.706635,181.170197 
	C380.609253,183.227127 379.805237,185.113861 378.698425,187.097061 
	C374.624268,185.852676 370.852875,184.511826 365.751923,182.698288 
	C366.652954,185.290756 366.902863,187.535446 368.080475,189.066605 
	C370.243134,191.878525 370.716705,194.350876 369.264923,197.741669 
	C366.582275,204.007385 368.804657,208.275803 375.151398,210.514771 
	C377.011963,211.171112 378.650665,212.462860 380.515198,213.100082 
	C384.380981,214.421173 388.273315,216.130280 392.261627,216.487976 
	C395.815521,216.806732 396.944672,218.232224 397.126709,221.299469 
	C396.668365,221.534760 396.209991,221.770065 395.029205,222.031097 
	C390.378265,222.703415 386.449799,223.350006 381.776733,224.119141 
	C381.811646,224.178055 381.467285,222.906967 380.638458,222.320084 
	C377.447754,220.060776 374.343964,217.221741 370.743591,216.130936 
	C367.380219,215.111923 363.374817,216.456207 359.749176,215.995499 
	C355.379639,215.440247 352.049561,215.490662 351.733612,221.060135 
	C351.692902,221.778580 350.717987,222.444031 349.496948,223.997986 
	C346.269043,215.523407 354.071838,209.257782 351.595184,201.931946 
	C351.358246,201.901016 350.847778,201.701096 350.399902,201.796082 
	C344.393463,203.069778 338.537292,204.173019 337.221130,195.491364 
	C337.126129,194.864609 335.702362,193.960480 334.995178,194.042038 
	C334.308899,194.121185 333.675629,195.253174 333.150787,196.013702 
	C332.075378,197.572098 331.436096,200.024323 329.997650,200.625137 
	C326.103180,202.251785 326.234558,204.904129 326.427612,208.337173 
	C326.569733,210.864243 325.444702,213.462555 324.884338,216.029129 
M358.373444,182.301041 
	C357.201508,174.759872 355.670166,173.568909 351.044952,175.301971 
	C348.155762,173.788376 345.915894,172.862717 343.978546,171.505295 
	C342.850861,170.715164 341.893890,169.342148 341.438293,168.030548 
	C341.011627,166.802139 341.347015,165.309021 341.347015,162.445694 
	C337.647705,165.244202 333.840668,166.701462 332.601501,169.356964 
	C330.000061,174.931961 324.344574,179.836441 327.072845,187.129028 
	C327.120148,187.255447 326.942261,187.452927 326.962799,187.604614 
	C327.163910,189.091354 327.384857,190.575409 327.600250,192.060226 
	C328.748260,191.095596 329.918762,190.155991 331.033508,189.154312 
	C331.496216,188.738556 331.839874,188.190308 331.963501,188.038651 
	C333.854004,188.711121 335.435883,189.742645 336.897125,189.593445 
	C337.615204,189.520142 338.009552,187.198654 338.729187,186.002106 
	C339.817902,184.191864 340.775146,181.430862 342.320129,181.005356 
	C343.951263,180.556168 346.697510,181.885941 348.091309,183.294678 
	C351.504791,186.744751 355.111328,186.862991 358.373444,182.301041 
z"/>
<path fill="#A9CF03" opacity="1.000000" stroke="none" 
	d="
M397.427734,221.149872 
	C396.944672,218.232224 395.815521,216.806732 392.261627,216.487976 
	C388.273315,216.130280 384.380981,214.421173 380.515198,213.100082 
	C378.650665,212.462860 377.011963,211.171112 375.151398,210.514771 
	C368.804657,208.275803 366.582275,204.007385 369.264923,197.741669 
	C370.716705,194.350876 370.243134,191.878525 368.080475,189.066605 
	C366.902863,187.535446 366.652954,185.290756 365.751923,182.698288 
	C370.852875,184.511826 374.624268,185.852676 379.060638,187.125717 
	C380.624329,187.427658 381.726318,187.581039 382.388153,188.202896 
	C386.166718,191.753036 389.116058,191.548676 393.007019,188.086761 
	C395.335938,186.014648 398.313019,184.671051 401.440002,183.000046 
	C405.961975,183.987686 410.042755,184.975266 414.123505,185.962860 
	C414.686768,186.416779 415.250061,186.870712 416.004395,187.802002 
	C416.797363,188.518570 417.399292,188.757797 418.001221,188.997025 
	C419.215302,189.820389 420.429382,190.643738 421.821228,192.150192 
	C422.336151,195.407761 422.673309,197.982239 423.128815,201.460358 
	C420.424713,201.078430 417.856445,200.715698 415.310699,200.356140 
	C413.483856,200.943665 411.434418,201.602783 409.384979,202.261887 
	C409.193329,200.254959 408.678162,198.215988 408.873169,196.247360 
	C409.374847,191.182968 406.004700,189.114563 401.696991,187.185226 
	C402.106812,192.865097 403.105804,198.367264 404.611572,203.727036 
	C405.350006,206.355469 405.822571,208.404434 403.340851,210.318649 
	C400.988251,212.133286 401.245850,214.233551 403.251434,216.239990 
	C401.410553,217.826752 399.569672,219.413513 397.427734,221.149872 
z"/>
<path fill="#A9CF03" opacity="1.000000" stroke="none" 
	d="
M382.000000,181.000000 
	C383.387817,174.235184 379.960693,168.012680 373.644257,167.700775 
	C370.340210,167.537628 366.893005,169.910156 363.547485,171.231339 
	C362.803192,171.525269 362.226013,172.619919 361.552368,172.638474 
	C360.021515,172.680649 358.397034,172.499557 356.978210,171.964630 
	C356.355896,171.730042 355.610443,169.910660 355.837219,169.668289 
	C356.787964,168.652191 358.001343,167.780716 359.272644,167.185364 
	C362.584198,165.634552 365.976837,164.256973 369.267303,162.840363 
	C368.111603,160.115936 367.407410,158.455963 366.703247,156.796005 
	C368.724823,156.541077 370.869232,156.625549 372.738190,155.949020 
	C375.326843,155.011978 377.320801,160.501602 380.012848,156.118469 
	C380.964813,156.320831 381.850433,156.833405 382.728027,157.910141 
	C382.149811,159.831223 381.114807,161.189224 381.117981,162.544785 
	C381.122772,164.594254 381.178101,167.416794 382.432129,168.506180 
	C384.243652,170.079834 386.760040,171.912582 389.677368,168.710800 
	C392.102081,166.049652 393.128265,169.066498 393.703156,171.179871 
	C389.478790,172.998413 388.605164,175.759338 389.923798,179.720749 
	C390.297363,180.843094 389.815796,182.704041 389.020264,183.597397 
	C388.514465,184.165390 386.591156,183.862778 385.513641,183.428818 
	C384.225311,182.909958 383.161224,181.834427 382.000000,181.000000 
z"/>
<path fill="#AACF06" opacity="1.000000" stroke="none" 
	d="
M403.592712,216.168427 
	C401.245850,214.233551 400.988251,212.133286 403.340851,210.318649 
	C405.822571,208.404434 405.350006,206.355469 404.611572,203.727036 
	C403.105804,198.367264 402.106812,192.865097 401.696991,187.185226 
	C406.004700,189.114563 409.374847,191.182968 408.873169,196.247360 
	C408.678162,198.215988 409.193329,200.254959 409.384979,202.261887 
	C411.434418,201.602783 413.483856,200.943665 415.310699,200.356140 
	C417.856445,200.715698 420.424713,201.078430 423.128815,201.460358 
	C422.673309,197.982239 422.336151,195.407761 421.997498,192.420746 
	C425.619629,195.760666 429.243225,199.513123 432.961426,203.598465 
	C430.313293,203.587402 427.578735,203.071106 424.825928,202.941360 
	C421.046021,202.763184 419.046417,204.876053 416.540955,207.828842 
	C413.422302,211.504333 408.230530,213.420776 403.592712,216.168427 
z"/>
<path fill="#A9CF03" opacity="1.000000" stroke="none" 
	d="
M381.706635,181.170197 
	C383.161224,181.834427 384.225311,182.909958 385.513641,183.428818 
	C386.591156,183.862778 388.514465,184.165390 389.020264,183.597397 
	C389.815796,182.704041 390.297363,180.843094 389.923798,179.720749 
	C388.605164,175.759338 389.478790,172.998413 394.102966,171.175476 
	C395.604462,170.964325 396.409271,170.937439 397.214111,170.910553 
	C397.214111,170.910553 397.611481,170.937561 397.910645,171.297699 
	C400.332367,175.145233 404.346588,178.167480 400.998779,183.000000 
	C398.313019,184.671051 395.335938,186.014648 393.007019,188.086761 
	C389.116058,191.548676 386.166718,191.753036 382.388153,188.202896 
	C381.726318,187.581039 380.624329,187.427658 379.363403,187.029266 
	C379.805237,185.113861 380.609253,183.227127 381.706635,181.170197 
z"/>
<path fill="#AACF06" opacity="1.000000" stroke="none" 
	d="
M397.072937,170.598938 
	C396.409271,170.937439 395.604462,170.964325 394.399811,170.995605 
	C393.128265,169.066498 392.102081,166.049652 389.677368,168.710800 
	C386.760040,171.912582 384.243652,170.079834 382.432129,168.506180 
	C381.178101,167.416794 381.122772,164.594254 381.117981,162.544785 
	C381.114807,161.189224 382.149811,159.831223 382.926422,158.149963 
	C387.732483,161.979538 392.332092,166.133438 397.072937,170.598938 
z"/>
<path fill="#AACF06" opacity="1.000000" stroke="none" 
	d="
M401.440002,183.000046 
	C404.346588,178.167480 400.332367,175.145233 398.106689,171.332703 
	C403.293488,175.780167 408.583466,180.552750 413.998474,185.644104 
	C410.042755,184.975266 405.961975,183.987686 401.440002,183.000046 
z"/>
<path fill="#97BA04" opacity="1.000000" stroke="none" 
	d="
M346.712341,124.723846 
	C344.520477,124.646629 342.145538,124.302605 339.362610,123.952667 
	C340.288727,120.907990 341.622894,117.869232 343.092285,114.536537 
	C343.391113,114.195374 343.554749,114.148140 343.968323,114.045761 
	C343.951111,117.708504 341.277954,121.957664 346.712341,124.723846 
z"/>
<path fill="#97BA04" opacity="1.000000" stroke="none" 
	d="
M371.047607,148.913849 
	C370.803009,147.982498 370.558380,147.051147 370.208435,145.877350 
	C371.864288,147.197495 373.625519,148.760071 375.424072,150.617477 
	C374.207336,150.309052 372.953217,149.705811 371.365967,149.034561 
	C371.032837,148.966553 371.047607,148.913849 371.047607,148.913849 
z"/>
<path fill="#97BA04" opacity="1.000000" stroke="none" 
	d="
M352.387238,128.378799 
	C351.407166,127.809944 350.462006,126.962387 349.442688,125.906807 
	C350.386383,126.499222 351.404297,127.299660 352.387238,128.378799 
z"/>
<path fill="#97BA04" opacity="1.000000" stroke="none" 
	d="
M531.721191,192.224487 
	C530.951111,192.826828 529.844360,193.414001 528.405151,194.025818 
	C529.176697,193.436752 530.280640,192.823029 531.721191,192.224487 
z"/>
<path fill="#97BA04" opacity="1.000000" stroke="none" 
	d="
M535.707703,190.035889 
	C535.258728,190.628387 534.507751,191.287140 533.453613,192.015747 
	C533.902222,191.424469 534.653992,190.763321 535.707703,190.035889 
z"/>
<path fill="#AACF06" opacity="1.000000" stroke="none" 
	d="
M417.781311,188.814972 
	C417.399292,188.757797 416.797363,188.518570 416.124054,188.052429 
	C416.555603,188.094650 417.058502,188.363800 417.781311,188.814972 
z"/>
<path fill="#17AA5A" opacity="1.000000" stroke="none" 
	d="
M306.756226,516.827271 
	C302.339325,518.382141 297.674438,519.983032 292.879669,520.917725 
	C288.969177,521.679993 284.898560,521.961426 280.907440,521.900269 
	C271.975952,521.763489 263.051910,521.146057 254.120392,521.006470 
	C250.699982,520.953003 247.267548,521.668884 243.405289,522.031677 
	C244.224152,515.749573 245.901199,514.140686 251.764313,514.215149 
	C267.944885,514.420471 284.125366,514.679443 300.302338,515.067200 
	C302.363190,515.116577 304.402679,516.057495 306.756226,516.827271 
z"/>
<path fill="#0DAB59" opacity="1.000000" stroke="none" 
	d="
M341.942108,502.767639 
	C340.564301,504.295776 339.084656,505.507904 337.314636,506.864563 
	C333.769562,506.647888 330.404022,506.670410 327.303650,505.774933 
	C325.569946,505.274200 324.276093,503.250519 322.784058,501.913025 
	C324.514954,501.138947 326.204102,499.841919 327.985504,499.699646 
	C331.694397,499.403412 335.469055,499.543060 339.178131,499.902069 
	C340.138763,499.995026 340.956757,501.561829 341.942108,502.767639 
z"/>
<path fill="#17AA5A" opacity="1.000000" stroke="none" 
	d="
M392.629089,453.016663 
	C390.538086,457.554199 388.045502,462.062714 385.291229,466.774109 
	C384.968353,464.001862 385.029999,461.018066 384.819855,458.053497 
	C384.410278,452.276123 384.699005,451.938049 390.257782,452.754089 
	C390.911682,452.850098 391.570801,452.910645 392.629089,453.016663 
z"/>
<path fill="#0DAB59" opacity="1.000000" stroke="none" 
	d="
M378.924896,467.359070 
	C381.372162,470.118683 379.170563,470.518738 377.392578,470.838318 
	C374.984711,471.271088 372.528900,471.437012 368.982574,470.939423 
	C370.049652,469.690399 370.905701,467.768036 372.233734,467.351868 
	C374.173035,466.744202 376.451263,467.218292 378.924896,467.359070 
z"/>
<path fill="#099A41" opacity="1.000000" stroke="none" 
	d="
M354.165344,486.993317 
	C356.510223,480.241455 360.411438,484.979980 363.801605,485.476257 
	C360.797455,486.825012 357.793304,488.173767 354.526947,489.640228 
	C354.488220,489.414337 354.311615,488.384216 354.165344,486.993317 
z"/>
<path fill="#13AD5B" opacity="1.000000" stroke="none" 
	d="
M405.566223,409.261108 
	C404.465881,410.376801 403.315765,411.160980 402.165619,411.945160 
	C401.767792,410.093109 401.369934,408.241058 400.972107,406.389008 
	C401.510101,406.147827 402.048096,405.906677 402.586121,405.665497 
	C403.562866,406.753540 404.539642,407.841583 405.566223,409.261108 
z"/>
<path fill="#A9CF03" opacity="1.000000" stroke="none" 
	d="
M324.729858,216.402313 
	C325.444702,213.462555 326.569733,210.864243 326.427612,208.337173 
	C326.234558,204.904129 326.103180,202.251785 329.997650,200.625137 
	C331.436096,200.024323 332.075378,197.572098 333.150787,196.013702 
	C333.675629,195.253174 334.308899,194.121185 334.995178,194.042038 
	C335.702362,193.960480 337.126129,194.864609 337.221130,195.491364 
	C338.537292,204.173019 344.393463,203.069778 350.399902,201.796082 
	C350.847778,201.701096 351.358246,201.901016 351.595184,201.931946 
	C354.071838,209.257782 346.269043,215.523407 349.496948,223.997986 
	C350.717987,222.444031 351.692902,221.778580 351.733612,221.060135 
	C352.049561,215.490662 355.379639,215.440247 359.749176,215.995499 
	C363.374817,216.456207 367.380219,215.111923 370.743591,216.130936 
	C374.343964,217.221741 377.447754,220.060776 380.638458,222.320084 
	C381.467285,222.906967 381.811646,224.178055 381.776733,224.119141 
	C386.449799,223.350006 390.378265,222.703415 394.774292,222.080200 
	C392.012421,225.429779 388.958313,228.950409 385.522888,232.048111 
	C371.649170,244.557999 365.689911,261.013489 362.062134,278.631195 
	C360.944366,284.059479 360.212982,289.567322 359.082764,296.375366 
	C356.645752,293.968903 354.974823,292.318970 353.130737,289.976624 
	C352.217712,284.801239 351.073761,280.532623 352.518188,275.729797 
	C353.327728,273.038116 351.501190,269.553619 350.891907,266.570831 
	C347.247162,269.205963 344.623596,271.102814 342.015594,272.618530 
	C342.552795,267.632782 340.886993,263.449554 340.049408,259.094025 
	C338.095215,248.931931 328.994751,245.808563 323.900513,238.973068 
	C323.886871,238.235260 323.873199,237.497452 324.219604,236.284805 
	C325.906189,234.884674 327.424225,234.137222 328.499725,232.978897 
	C329.392365,232.017487 330.477570,230.340271 330.173157,229.404449 
	C329.844849,228.395172 328.065094,227.717941 326.793915,227.204361 
	C325.936096,226.857803 324.862457,227.045563 323.885376,226.994308 
	C324.115387,223.588043 324.345398,220.181763 324.729858,216.402313 
M341.151154,231.688782 
	C341.573792,229.986526 341.996460,228.284256 342.419128,226.582001 
	C340.317261,226.682327 338.187683,226.636612 336.140350,227.024673 
	C335.792999,227.090485 335.344666,229.718277 335.722626,229.964172 
	C337.132629,230.881561 338.867126,231.300186 341.151154,231.688782 
z"/>
<path fill="#AACF06" opacity="1.000000" stroke="none" 
	d="
M323.886780,239.444702 
	C328.994751,245.808563 338.095215,248.931931 340.049408,259.094025 
	C340.886993,263.449554 342.552795,267.632782 341.741333,272.725494 
	C336.002563,272.651489 334.772400,268.240265 332.957916,264.185059 
	C331.856812,261.724274 330.154449,259.532562 328.722198,257.220001 
	C328.187500,257.400024 327.652832,257.580048 327.118134,257.760101 
	C326.391907,259.881409 325.665649,262.002747 324.939392,264.124054 
	C324.583954,256.054810 324.228485,247.985580 323.886780,239.444702 
z"/>
<path fill="#A9CF03" opacity="1.000000" stroke="none" 
	d="
M325.149780,264.376984 
	C325.665649,262.002747 326.391907,259.881409 327.118134,257.760101 
	C327.652832,257.580048 328.187500,257.400024 328.722198,257.220001 
	C330.154449,259.532562 331.856812,261.724274 332.957916,264.185059 
	C334.772400,268.240265 336.002563,272.651489 341.725769,273.106628 
	C344.623596,271.102814 347.247162,269.205963 350.891907,266.570831 
	C351.501190,269.553619 353.327728,273.038116 352.518188,275.729797 
	C351.073761,280.532623 352.217712,284.801239 352.952118,289.698303 
	C347.382172,284.733246 341.886108,279.280701 336.227997,274.001862 
	C332.732971,270.741119 328.991180,267.744904 325.149780,264.376984 
z"/>
<path fill="#AACF06" opacity="1.000000" stroke="none" 
	d="
M323.874725,227.445038 
	C324.862457,227.045563 325.936096,226.857803 326.793915,227.204361 
	C328.065094,227.717941 329.844849,228.395172 330.173157,229.404449 
	C330.477570,230.340271 329.392365,232.017487 328.499725,232.978897 
	C327.424225,234.137222 325.906189,234.884674 324.240356,235.916260 
	C323.888702,233.313629 323.876404,230.604691 323.874725,227.445038 
z"/>
<path fill="#05A751" opacity="1.000000" stroke="none" 
	d="
M265.850861,57.694351 
	C265.410461,57.473240 264.842529,57.000317 264.151001,56.271576 
	C264.592743,56.491352 265.158020,56.966942 265.850861,57.694351 
z"/>
<path fill="#0EA954" opacity="1.000000" stroke="none" 
	d="
M316.289459,179.386108 
	C315.672852,179.567459 315.158600,179.547211 314.644379,179.526947 
	C314.898071,179.020004 315.151733,178.513062 315.405396,178.006104 
	C315.734222,178.398911 316.063019,178.791702 316.289459,179.386108 
z"/>
<path fill="#A9CF03" opacity="1.000000" stroke="none" 
	d="
M358.351471,182.642838 
	C355.111328,186.862991 351.504791,186.744751 348.091309,183.294678 
	C346.697510,181.885941 343.951263,180.556168 342.320129,181.005356 
	C340.775146,181.430862 339.817902,184.191864 338.729187,186.002106 
	C338.009552,187.198654 337.615204,189.520142 336.897125,189.593445 
	C335.435883,189.742645 333.854004,188.711121 331.963501,188.038651 
	C331.839874,188.190308 331.496216,188.738556 331.033508,189.154312 
	C329.918762,190.155991 328.748260,191.095596 327.600220,192.060211 
	C327.384857,190.575409 327.163910,189.091354 326.962799,187.604614 
	C326.942261,187.452927 327.120148,187.255447 327.072845,187.129028 
	C324.344574,179.836441 330.000061,174.931961 332.601501,169.356964 
	C333.840668,166.701462 337.647705,165.244202 341.347015,162.445694 
	C341.347015,165.309021 341.011627,166.802139 341.438293,168.030548 
	C341.893890,169.342148 342.850861,170.715164 343.978546,171.505295 
	C345.915894,172.862717 348.155762,173.788376 351.044952,175.301971 
	C355.670166,173.568909 357.201508,174.759872 358.351471,182.642838 
z"/>
<path fill="#A9CF03" opacity="1.000000" stroke="none" 
	d="
M371.059265,148.959335 
	C370.824005,149.275467 370.562347,149.598816 370.300720,149.922165 
	C370.438263,149.640335 370.575806,149.358505 370.880493,148.995270 
	C371.047607,148.913849 371.032837,148.966553 371.059265,148.959335 
z"/>
<path fill="#AACF06" opacity="1.000000" stroke="none" 
	d="
M340.815521,231.797363 
	C338.867126,231.300186 337.132629,230.881561 335.722626,229.964172 
	C335.344666,229.718277 335.792999,227.090485 336.140350,227.024673 
	C338.187683,226.636612 340.317261,226.682327 342.419128,226.582001 
	C341.996460,228.284256 341.573792,229.986526 340.815521,231.797363 
z"/>
</svg>