<?xml version="1.0" encoding="UTF-8"?>
<svg xmlns="http://www.w3.org/2000/svg" version="1.1" style="display: block; background: transparent;" viewBox="0 0 2048 1851" width="634" height="573" preserveAspectRatio="none">

<path transform="translate(0,0)" fill="rgb(0,173,88)" d="M 93.1023 160.019 L 1037.23 159.837 C 1037.73 185.764 1037.21 211.276 1037.32 237.155 C 1037.81 287.535 1037.82 337.919 1037.36 388.299 C 1037.05 417.546 1037.26 445.221 1037.89 474.504 C 1038.38 496.903 1036.41 513.841 1039.36 536.958 C 1036.33 567.705 1037.31 604.515 1037.33 635.835 L 1037.52 775.68 C 1037.62 791.774 1039.34 835.161 1037.94 849.586 C 977.245 793.338 931.904 730.509 856.175 691.873 C 783.502 654.796 735.678 653.007 656.736 652.924 L 519.083 653.299 C 500.508 653.222 476.274 653.187 458.057 650.125 C 289.824 621.844 152.532 490.915 109.743 326.963 C 93.9524 266.461 92.7805 220.623 93.1023 160.019 z"/>
<path transform="translate(0,0)" fill="rgb(223,224,4)" d="M 1093.27 387.764 C 1135.6 311.428 1199.56 249.326 1277.12 209.28 C 1303.85 195.794 1331.78 186.508 1360.25 177.58 C 1410.44 161.839 1454.33 159.826 1506.4 159.774 L 1593.71 159.989 L 1775.49 159.896 L 1887.07 159.789 C 1919.21 159.465 1951.04 158.119 1983.1 160.537 C 1983.18 186.518 1983.21 211.961 1982.03 238.011 C 1972.13 456.347 1784.4 654.548 1561.65 653.471 C 1509.64 653.22 1457.97 649.23 1406.47 660.373 C 1328.51 677.308 1256.85 724.269 1213.51 791.692 C 1188.58 830.878 1173.34 875.436 1169.05 921.68 C 1167.66 937.911 1169.1 956.153 1165.66 971.814 C 1154.03 961.5 1040.69 855.783 1037.94 849.586 C 1039.34 835.161 1037.62 791.774 1037.52 775.68 L 1037.33 635.835 C 1037.31 604.515 1036.33 567.705 1039.36 536.958 C 1045.83 491.024 1067.01 425.857 1093.27 387.764 z"/>
<path transform="translate(0,0)" fill="rgb(170,208,4)" d="M 1039.36 536.958 C 1045.83 491.024 1067.01 425.857 1093.27 387.764 C 1093.68 389.893 1093.75 393.629 1096.25 394.43 C 1105.68 397.452 1113.41 395.835 1121.71 402.32 C 1144.4 420.03 1162.15 442.287 1185.89 459.133 C 1193.44 464.485 1200.91 475.393 1208.29 481.58 C 1221.75 494.054 1236.68 505.473 1250.21 517.896 C 1283.27 548.25 1316.52 579.286 1350.8 608.232 C 1362.08 617.759 1371.78 625.265 1381.52 637.072 C 1386.8 643.47 1394.82 653.665 1401.13 659.493 C 1401.14 659.503 1405.82 660.284 1406.47 660.373 C 1328.51 677.308 1256.85 724.269 1213.51 791.692 C 1188.58 830.878 1173.34 875.436 1169.05 921.68 C 1167.66 937.911 1169.1 956.153 1165.66 971.814 C 1154.03 961.5 1040.69 855.783 1037.94 849.586 C 1039.34 835.161 1037.62 791.774 1037.52 775.68 L 1037.33 635.835 C 1037.31 604.515 1036.33 567.705 1039.36 536.958 z"/>
<path transform="translate(0,0)" fill="rgb(0,173,88)" d="M 771.687 767.818 C 775.022 770.171 780.395 775.848 783.922 778.768 C 800.789 792.729 814.616 809.397 829.913 824.413 L 977.865 971.542 L 1235.64 1226.56 C 1255.21 1246.14 1274.69 1265.04 1293.8 1285.25 C 1303.27 1295.26 1316.52 1304.22 1326.19 1315.1 C 1324.54 1340.89 1307.02 1396.26 1296.28 1420.98 C 1272.87 1474.85 1236.34 1525.64 1192.97 1565.31 C 1173.51 1585.2 1156.17 1598.31 1132.54 1612.75 C 1121.63 1619.41 1111.18 1627.24 1099.73 1633.53 C 1044.2 1663.6 982.987 1681.73 920.031 1686.76 C 871.859 1690.3 819.176 1686.88 770.213 1689.32 C 769.248 1660.39 770.146 1627.91 770.26 1598.55 L 770.423 1452.14 L 770.546 1014.73 L 770.843 826.66 C 770.947 813.707 769.467 777.737 771.687 767.818 z"/>
</svg>